<?xml version="1.0" encoding="UTF-8"?>
<svg version="1.1" xmlns="http://www.w3.org/2000/svg" width="512" height="512">
<path d="M0 0 C1.14082031 0.06960938 2.28164062 0.13921875 3.45703125 0.2109375 C29.91452537 2.79075816 53.3443122 17.0709666 75.73046875 30.328125 C82.25269837 34.17623019 88.86779016 37.84566184 95.5 41.5 C105.03332064 46.76202977 114.48137442 52.14635302 123.87109375 57.66015625 C131.54789109 62.16522416 139.26585494 66.5945312 147 71 C163.3337898 80.30955916 179.62905092 89.69079791 195.71411133 99.42553711 C200.2523208 102.17151912 202.62494512 103.21939 208 103 C209.485 102.505 209.485 102.505 211 102 C216.46311775 115.87377811 217.46103972 128.19983043 212.15234375 142.2421875 C208.00048086 151.48053176 200.96928224 157.93549292 191.796875 161.96875 C178.68079518 166.65926861 165.41187143 164.31276978 153.0456543 158.64624023 C150.15964694 157.15700162 147.32639386 155.59937301 144.5 154 C142.95107056 153.14233032 142.95107056 153.14233032 141.37084961 152.26733398 C138.23849251 150.52660241 135.11739008 148.76737485 132 147 C131.09652832 146.48840332 130.19305664 145.97680664 129.26220703 145.44970703 C124.96743556 143.01178552 120.68256602 140.55710918 116.40234375 138.09375 C110.50213507 134.70415254 104.56533032 131.38114324 98.625 128.0625 C89.62478695 123.03327333 80.64058256 117.97698043 71.66894531 112.89697266 C64.58351621 108.88788773 57.48163321 104.90885385 50.375 100.9375 C42.72785139 96.66298819 35.09976573 92.3581974 27.5 88 C16.78620814 81.85722134 6.01078097 75.82664595 -4.77099609 69.80419922 C-9.13026979 67.36846411 -13.48763387 64.92932775 -17.84448242 62.48925781 C-19.97045818 61.29893074 -22.0969144 60.10946134 -24.22387695 58.92089844 C-28.75265833 56.38867659 -33.27627232 53.84974622 -37.7734375 51.26171875 C-52.40540416 42.72249427 -52.40540416 42.72249427 -68.86328125 39.90234375 C-69.74951172 39.90556641 -70.63574219 39.90878906 -71.54882812 39.91210938 C-72.9168457 39.92467773 -72.9168457 39.92467773 -74.3125 39.9375 C-75.24384766 39.94201172 -76.17519531 39.94652344 -77.13476562 39.95117188 C-79.42324373 39.96290766 -81.71158808 39.97932637 -84 40 C-71.39758389 20.4313474 -53.6773847 7.48318883 -30.71191406 2.50390625 C-20.4983354 0.48537947 -10.42316795 -0.65371785 0 0 Z " fill="#000000" transform="translate(208,272)"/>
<path d="M0 0 C10.62749112 7.32537781 15.05349016 17.76188108 19.0625 29.625 C19.56084618 31.06989522 20.05990225 32.51454575 20.55957031 33.95898438 C22.39757664 39.29774624 24.19850785 44.64882967 26 50 C26.78173143 52.31608304 27.56347009 54.63216364 28.34521484 56.94824219 C38.06442689 85.77734092 47.6032616 114.65983403 56.81347656 143.65600586 C63.71132909 165.35009169 70.84082221 186.96768162 77.96885777 208.58696938 C79.49773134 213.22562958 81.01959153 217.8665534 82.5390625 222.50830078 C84.13719175 227.38921195 85.75841957 232.26143453 87.3984375 237.12841797 C88.13053081 239.33420289 88.86231911 241.54008908 89.59375 243.74609375 C89.92661011 244.71523209 90.25947021 245.68437042 90.60241699 246.68287659 C95.84044352 262.63689035 95.84044352 262.63689035 93.01013184 269.34666443 C92.67678833 269.89226517 92.34344482 270.43786591 92 271 C81.05326122 265.00140829 70.21846207 258.8321144 59.44677734 252.5246582 C52.02160613 248.17689471 44.57955159 243.85968448 37.125 239.5625 C35.52845581 238.64005493 35.52845581 238.64005493 33.8996582 237.69897461 C28.80268827 234.75636637 23.70012432 231.82474997 18.57757568 228.92692566 C16.18679343 227.57348397 13.79941034 226.21410938 11.41229248 224.85421753 C9.73209664 223.90031888 8.04701502 222.95504223 6.36181641 222.01000977 C4.82726807 221.13493774 4.82726807 221.13493774 3.26171875 220.2421875 C2.36412842 219.7354248 1.46653809 219.22866211 0.54174805 218.70654297 C-5.05231409 214.95066032 -7.58825861 211.48100477 -9.56640625 205.05859375 C-9.79378983 204.3400975 -10.0211734 203.62160126 -10.25544739 202.8813324 C-10.76369045 201.27129357 -11.26507456 199.65907838 -11.76068115 198.04510498 C-13.21603437 193.3121328 -14.72730088 188.59686501 -16.23046875 183.87890625 C-16.75148163 182.23722473 -16.75148163 182.23722473 -17.28302002 180.56237793 C-20.71560578 169.79010799 -24.28183044 159.06340989 -27.86328125 148.33984375 C-28.16858072 147.42561834 -28.4738802 146.51139294 -28.78843117 145.56946373 C-30.98163375 139.00386581 -33.17810063 132.43936167 -35.375 125.875 C-36.59999563 122.21421325 -37.82470386 118.55333056 -39.04907227 114.89233398 C-39.34572124 114.00538251 -39.6423702 113.11843103 -39.94800854 112.20460224 C-42.22001247 105.40788315 -44.47953188 98.60706623 -46.73361683 91.80438519 C-48.35156762 86.92846025 -49.99998692 82.06413804 -51.66503906 77.20410156 C-52.41521606 74.97217405 -53.16493368 72.74009205 -53.9140625 70.5078125 C-54.25182709 69.54745087 -54.58959167 68.58708923 -54.93759155 67.59762573 C-58.00820301 58.31749231 -56.38064591 51.1643136 -53.26953125 42.125 C-52.86017586 40.91094482 -52.86017586 40.91094482 -52.44255066 39.67236328 C-51.86637472 37.973337 -51.28544241 36.27591686 -50.69995117 34.58007812 C-49.81656317 32.0118128 -48.95735597 29.43630031 -48.09960938 26.859375 C-40.53534082 4.52799042 -40.53534082 4.52799042 -29.88671875 -1.12109375 C-19.86497134 -5.74036807 -9.61834451 -5.49155481 0 0 Z " fill="#000000" transform="translate(319,97)"/>
<path d="M0 0 C15.44555205 -0.52519651 33.90577868 2.72185167 47.58984375 10.1640625 C47.58984375 10.4940625 47.58984375 10.8240625 47.58984375 11.1640625 C46.74421875 11.23882812 45.89859375 11.31359375 45.02734375 11.390625 C38.06534607 12.19758382 33.35861155 13.19544378 28.078125 17.921875 C26.58984375 19.1640625 26.58984375 19.1640625 24.58984375 19.1640625 C24.3165625 19.73640625 24.04328125 20.30875 23.76171875 20.8984375 C22.58171668 23.17977484 21.23964664 25.26167742 19.83984375 27.4140625 C10.56927209 42.99636978 6.21105507 62.06293667 0.52374434 79.22543597 C-0.77178261 83.13218682 -2.07130522 87.0376079 -3.37052917 90.94313049 C-6.65816835 100.8280808 -9.94065312 110.71473977 -13.22265625 120.6015625 C-16.78439746 131.33090922 -20.3470686 142.05994243 -23.91554087 152.78705269 C-25.46008002 157.43064204 -27.00168863 162.07519085 -28.54106772 166.7204932 C-29.49416068 169.59463189 -30.44970751 172.46795021 -31.40594101 175.34104538 C-31.85003854 176.67709729 -32.29309413 178.01349604 -32.73505592 179.35025597 C-33.33595235 181.1672697 -33.94084521 182.98296037 -34.54597473 184.79856873 C-34.88385419 185.81664832 -35.22173365 186.83472792 -35.56985188 187.88365841 C-36.41015625 190.1640625 -36.41015625 190.1640625 -37.41015625 191.1640625 C-38.89626515 191.2149954 -40.38473957 191.19943635 -41.87109375 191.15625 C-71.72267187 190.54530533 -98.83895733 195.84948427 -121.26953125 216.83984375 C-126.50784276 221.9063929 -131.31005826 227.12636546 -135.41015625 233.1640625 C-136.07015625 232.8340625 -136.73015625 232.5040625 -137.41015625 232.1640625 C-107.03957546 139.86746126 -107.03957546 139.86746126 -95.49584961 105.38574219 C-94.77195661 103.22331266 -94.04807917 101.06087793 -93.32421875 98.8984375 C-92.98401199 97.88239441 -92.64380524 96.86635132 -92.29328918 95.81951904 C-90.18463263 89.51174723 -88.11026233 83.19369923 -86.05859375 76.8671875 C-85.31724023 74.59412311 -84.575157 72.32129837 -83.83282471 70.04855347 C-83.20260345 68.10731073 -82.5840307 66.1622972 -81.96630859 64.21704102 C-77.79135607 51.44147063 -72.2789839 40.3594242 -63.41015625 30.1640625 C-62.62640625 29.1328125 -61.84265625 28.1015625 -61.03515625 27.0390625 C-45.31547795 9.82227198 -22.75420254 1.54890844 0 0 Z " fill="#000000" transform="translate(253.41015625,74.8359375)"/>
<path d="M0 0 C0.90266602 0.48476807 1.80533203 0.96953613 2.73535156 1.46899414 C5.49910933 2.96372404 8.25081455 4.47865888 11 6 C11.86044922 6.47163574 12.72089844 6.94327148 13.60742188 7.42919922 C15.99877786 8.74761855 18.37670235 10.08689279 20.75 11.4375 C21.47058594 11.83775391 22.19117188 12.23800781 22.93359375 12.65039062 C27.74681917 15.45416535 27.74681917 15.45416535 28.80654907 17.73884583 C29.08126299 20.94984367 28.18923466 23.31532683 27.17333984 26.36987305 C26.86373825 27.31466774 26.86373825 27.31466774 26.54788208 28.27854919 C25.86266868 30.35989361 25.16228707 32.43576122 24.4609375 34.51171875 C23.9775833 35.96395872 23.49489686 37.4164211 23.0128479 38.86909485 C21.99885007 41.91689825 20.97745198 44.96209111 19.95068359 48.00561523 C18.64301445 51.88340154 17.35266128 55.76667741 16.06780052 59.65207195 C15.07237638 62.65626382 14.06815989 65.65746038 13.06132889 68.65784645 C12.5828047 70.08695293 12.10681329 71.51691032 11.63352585 72.94775963 C6.69991012 87.82752834 1.2292263 100.18461527 -13 108 C-22.75797517 112.6184155 -33.87635227 113.08557107 -44.15234375 110.06640625 C-55.69483006 105.74391138 -63.9137235 97.79698368 -69.03125 86.59375 C-75.17607761 70.14146962 -69.5261145 55.27664148 -64.1875 39.5 C-63.55020808 37.5850424 -62.91413165 35.66967983 -62.27929688 33.75390625 C-61.06815445 30.1050627 -59.84778018 26.45955275 -58.61816406 22.81689453 C-57.63833145 19.91196983 -56.67173854 17.00403758 -55.73339844 14.08544922 C-55.38696289 13.01311035 -55.04052734 11.94077148 -54.68359375 10.8359375 C-54.40185303 9.9495459 -54.1201123 9.0631543 -53.82983398 8.14990234 C-51.27710681 1.5363938 -44.02505849 -1.93185483 -38 -5 C-25.08609964 -10.21998655 -11.61091713 -6.33590102 0 0 Z " fill="#000000" transform="translate(161,325)"/>
</svg>
